#Comment line ignore any data following # character 
#Hierarchical Translation and Rotation (.htr) file 
[Header]	
#Header keywords are followed by a single value 
FileType HTR		#Single word string
DataType HTRS		#Translation followed by rotation and scale data
FileVersion 1		#integer
NumSegments 84		#integer
NumFrames 2		#integer
DataFrameRate 30		#integer, data frame rate in this file
EulerRotationOrder ZYX
CalibrationUnits mm
RotationUnits Degrees
GlobalAxisofGravity Y
BoneLengthAxis Y
ScaleFactor 1.00
[SegmentNames&Hierarchy]
#CHILD	PARENT
MASTER GLOBAL
root MASTER
chest root
L_mid_tent01 root
R_mid_tent01 root
spine01 root
Bip01_Neck chest
L_humerus chest
R_humerus chest
weapon_bone chest
Bip01_Head Bip01_Neck
eye_left_bone Bip01_Head
eye_right_bone Bip01_Head
L_forearm L_humerus
L_front_hand L_forearm
L_weapon_bone L_forearm
L_front_hand01_01 L_front_hand
L_front_hand02_01 L_front_hand
L_front_hand03_01 L_front_hand
L_front_hand01_02 L_front_hand01_01
L_front_hand02_02 L_front_hand02_01
L_front_hand03_02 L_front_hand03_01
R_forearm R_humerus
R_front_hand R_forearm
R_weapon_bone R_forearm
R_front_hand01_01 R_front_hand
R_front_hand02_01 R_front_hand
R_front_hand03_01 R_front_hand
R_front_hand01_02 R_front_hand01_01
R_front_hand02_02 R_front_hand02_01
R_front_hand03_02 R_front_hand03_01
null_rope01_connect L_mid_tent01
Rope1_Seg01 null_rope01_connect
Rope1_Seg02 Rope1_Seg01
Rope1_Seg03 Rope1_Seg02
Rope1_Seg04 Rope1_Seg03
Rope1_Seg05 Rope1_Seg04
Rope1_Seg06 Rope1_Seg05
Rope1_Seg07 Rope1_Seg06
Rope1_Seg09 Rope1_Seg07
L_mid_hand01 Rope1_Seg09
L_mid_hand02 Rope1_Seg09
L_mid_hand03 Rope1_Seg09
null_rope02_connect R_mid_tent01
Rope2_Seg01 null_rope02_connect
Rope2_Seg02 Rope2_Seg01
Rope2_Seg03 Rope2_Seg02
Rope2_Seg04 Rope2_Seg03
Rope2_Seg05 Rope2_Seg04
Rope2_Seg06 Rope2_Seg05
Rope2_Seg07 Rope2_Seg06
Rope2_Seg09 Rope2_Seg07
R_mid_hand01 Rope2_Seg09
R_mid_hand02 Rope2_Seg09
R_mid_hand03 Rope2_Seg09
spine02 spine01
spine03 spine02
pelvis spine03
null_rope03_connect pelvis
null_rope04_connect pelvis
Rope3_Seg01 null_rope03_connect
Rope3_Seg02 Rope3_Seg01
Rope3_Seg03 Rope3_Seg02
Rope3_Seg04 Rope3_Seg03
Rope3_Seg05 Rope3_Seg04
Rope3_Seg06 Rope3_Seg05
Rope3_Seg07 Rope3_Seg06
Rope3_Seg08 Rope3_Seg07
Rope3_Seg09 Rope3_Seg08
R_rear_hand01 Rope3_Seg09
R_rear_hand02 Rope3_Seg09
R_rear_hand03 Rope3_Seg09
Rope4_Seg01 null_rope04_connect
Rope4_Seg02 Rope4_Seg01
Rope4_Seg03 Rope4_Seg02
Rope4_Seg04 Rope4_Seg03
Rope4_Seg05 Rope4_Seg04
Rope4_Seg06 Rope4_Seg05
Rope4_Seg07 Rope4_Seg06
Rope4_Seg08 Rope4_Seg07
Rope4_Seg09 Rope4_Seg08
L_rear_hand01 Rope4_Seg09
L_rear_hand02 Rope4_Seg09
L_rear_hand03 Rope4_Seg09
[BasePosition]
#SegmentName Tx, Ty, Tz, Rx, Ry, Rz, BoneLength
MASTER 0.000000 0.000000 0.000000 -90.000000 0.000000 0.000000 10.000000 
root 0.000000 0.000000 0.000000 0.000000 0.000000 0.000000 10.000000 
chest 0.000000 0.000000 0.000000 0.000000 0.000000 0.000000 10.000000 
L_mid_tent01 0.000000 0.000000 0.000000 0.000000 0.000000 0.000000 10.000000 
R_mid_tent01 0.000000 0.000000 0.000000 0.000000 0.000000 0.000000 10.000000 
spine01 0.000000 0.000000 0.000000 0.000000 0.000000 0.000000 10.000000 
Bip01_Neck 0.000000 0.000000 0.000000 0.000000 0.000000 0.000000 10.000000 
L_humerus 0.000000 0.000000 0.000000 0.000000 0.000000 0.000000 10.000000 
R_humerus 0.000000 0.000000 0.000000 0.000000 0.000000 0.000000 10.000000 
weapon_bone 0.000000 0.000000 0.000000 0.000000 0.000000 0.000000 10.000000 
Bip01_Head 0.000000 0.000000 0.000000 0.000000 0.000000 0.000000 10.000000 
eye_left_bone 0.000000 0.000000 0.000000 0.000000 0.000000 0.000000 10.000000 
eye_right_bone 0.000000 0.000000 0.000000 0.000000 0.000000 0.000000 10.000000 
L_forearm 0.000000 0.000000 0.000000 0.000000 0.000000 0.000000 10.000000 
L_front_hand 0.000000 0.000000 0.000000 0.000000 0.000000 0.000000 10.000000 
L_weapon_bone 0.000000 0.000000 0.000000 0.000000 0.000000 0.000000 10.000000 
L_front_hand01_01 0.000000 0.000000 0.000000 0.000000 0.000000 0.000000 10.000000 
L_front_hand02_01 0.000000 0.000000 0.000000 0.000000 0.000000 0.000000 10.000000 
L_front_hand03_01 0.000000 0.000000 0.000000 0.000000 0.000000 0.000000 10.000000 
L_front_hand01_02 0.000000 0.000000 0.000000 0.000000 0.000000 0.000000 10.000000 
L_front_hand02_02 0.000000 0.000000 0.000000 0.000000 0.000000 0.000000 10.000000 
L_front_hand03_02 0.000000 0.000000 0.000000 0.000000 0.000000 0.000000 10.000000 
R_forearm 0.000000 0.000000 0.000000 0.000000 0.000000 0.000000 10.000000 
R_front_hand 0.000000 0.000000 0.000000 0.000000 0.000000 0.000000 10.000000 
R_weapon_bone 0.000000 0.000000 0.000000 0.000000 0.000000 0.000000 10.000000 
R_front_hand01_01 0.000000 0.000000 0.000000 0.000000 0.000000 0.000000 10.000000 
R_front_hand02_01 0.000000 0.000000 0.000000 0.000000 0.000000 0.000000 10.000000 
R_front_hand03_01 0.000000 0.000000 0.000000 0.000000 0.000000 0.000000 10.000000 
R_front_hand01_02 0.000000 0.000000 0.000000 0.000000 0.000000 0.000000 10.000000 
R_front_hand02_02 0.000000 0.000000 0.000000 0.000000 0.000000 0.000000 10.000000 
R_front_hand03_02 0.000000 0.000000 0.000000 0.000000 0.000000 0.000000 10.000000 
null_rope01_connect 0.000000 0.000000 0.000000 0.000000 0.000000 0.000000 10.000000 
Rope1_Seg01 0.000000 0.000000 0.000000 0.000000 0.000000 0.000000 10.000000 
Rope1_Seg02 0.000000 0.000000 0.000000 0.000000 0.000000 0.000000 10.000000 
Rope1_Seg03 0.000000 0.000000 0.000000 0.000000 0.000000 0.000000 10.000000 
Rope1_Seg04 0.000000 0.000000 0.000000 0.000000 0.000000 0.000000 10.000000 
Rope1_Seg05 0.000000 0.000000 0.000000 0.000000 0.000000 0.000000 10.000000 
Rope1_Seg06 0.000000 0.000000 0.000000 0.000000 0.000000 0.000000 10.000000 
Rope1_Seg07 0.000000 0.000000 0.000000 0.000000 0.000000 0.000000 10.000000 
Rope1_Seg09 0.000000 0.000000 0.000000 0.000000 0.000000 0.000000 10.000000 
L_mid_hand01 0.000000 0.000000 0.000000 0.000000 0.000000 0.000000 10.000000 
L_mid_hand02 0.000000 0.000000 0.000000 0.000000 0.000000 0.000000 10.000000 
L_mid_hand03 0.000000 0.000000 0.000000 0.000000 0.000000 0.000000 10.000000 
null_rope02_connect 0.000000 0.000000 0.000000 0.000000 0.000000 0.000000 10.000000 
Rope2_Seg01 0.000000 0.000000 0.000000 0.000000 0.000000 0.000000 10.000000 
Rope2_Seg02 0.000000 0.000000 0.000000 0.000000 0.000000 0.000000 10.000000 
Rope2_Seg03 0.000000 0.000000 0.000000 0.000000 0.000000 0.000000 10.000000 
Rope2_Seg04 0.000000 0.000000 0.000000 0.000000 0.000000 0.000000 10.000000 
Rope2_Seg05 0.000000 0.000000 0.000000 0.000000 0.000000 0.000000 10.000000 
Rope2_Seg06 0.000000 0.000000 0.000000 0.000000 0.000000 0.000000 10.000000 
Rope2_Seg07 0.000000 0.000000 0.000000 0.000000 0.000000 0.000000 10.000000 
Rope2_Seg09 0.000000 0.000000 0.000000 0.000000 0.000000 0.000000 10.000000 
R_mid_hand01 0.000000 0.000000 0.000000 0.000000 0.000000 0.000000 10.000000 
R_mid_hand02 0.000000 0.000000 0.000000 0.000000 0.000000 0.000000 10.000000 
R_mid_hand03 0.000000 0.000000 0.000000 0.000000 0.000000 0.000000 10.000000 
spine02 0.000000 0.000000 0.000000 0.000000 0.000000 0.000000 10.000000 
spine03 0.000000 0.000000 0.000000 0.000000 0.000000 0.000000 10.000000 
pelvis 0.000000 0.000000 0.000000 0.000000 0.000000 0.000000 10.000000 
null_rope03_connect 0.000000 0.000000 0.000000 0.000000 0.000000 0.000000 10.000000 
null_rope04_connect 0.000000 0.000000 0.000000 0.000000 0.000000 0.000000 10.000000 
Rope3_Seg01 0.000000 0.000000 0.000000 0.000000 0.000000 0.000000 10.000000 
Rope3_Seg02 0.000000 0.000000 0.000000 0.000000 0.000000 0.000000 10.000000 
Rope3_Seg03 0.000000 0.000000 0.000000 0.000000 0.000000 0.000000 10.000000 
Rope3_Seg04 0.000000 0.000000 0.000000 0.000000 0.000000 0.000000 10.000000 
Rope3_Seg05 0.000000 0.000000 0.000000 0.000000 0.000000 0.000000 10.000000 
Rope3_Seg06 0.000000 0.000000 0.000000 0.000000 0.000000 0.000000 10.000000 
Rope3_Seg07 0.000000 0.000000 0.000000 0.000000 0.000000 0.000000 10.000000 
Rope3_Seg08 0.000000 0.000000 0.000000 0.000000 0.000000 0.000000 10.000000 
Rope3_Seg09 0.000000 0.000000 0.000000 0.000000 0.000000 0.000000 10.000000 
R_rear_hand01 0.000000 0.000000 0.000000 0.000000 0.000000 0.000000 10.000000 
R_rear_hand02 0.000000 0.000000 0.000000 0.000000 0.000000 0.000000 10.000000 
R_rear_hand03 0.000000 0.000000 0.000000 0.000000 0.000000 0.000000 10.000000 
Rope4_Seg01 0.000000 0.000000 0.000000 0.000000 0.000000 0.000000 10.000000 
Rope4_Seg02 0.000000 0.000000 0.000000 0.000000 0.000000 0.000000 10.000000 
Rope4_Seg03 0.000000 0.000000 0.000000 0.000000 0.000000 0.000000 10.000000 
Rope4_Seg04 0.000000 0.000000 0.000000 0.000000 0.000000 0.000000 10.000000 
Rope4_Seg05 0.000000 0.000000 0.000000 0.000000 0.000000 0.000000 10.000000 
Rope4_Seg06 0.000000 0.000000 0.000000 0.000000 0.000000 0.000000 10.000000 
Rope4_Seg07 0.000000 0.000000 0.000000 0.000000 0.000000 0.000000 10.000000 
Rope4_Seg08 0.000000 0.000000 0.000000 0.000000 0.000000 0.000000 10.000000 
Rope4_Seg09 0.000000 0.000000 0.000000 0.000000 0.000000 0.000000 10.000000 
L_rear_hand01 0.000000 0.000000 0.000000 0.000000 0.000000 0.000000 10.000000 
L_rear_hand02 0.000000 0.000000 0.000000 0.000000 0.000000 0.000000 10.000000 
L_rear_hand03 0.000000 0.000000 0.000000 0.000000 0.000000 0.000000 10.000000 
#Beginning of Data. Separated by tabs
#Fr	Tx	Ty	Tz	Rx	Ry	Rz	SF
[MASTER]
12 0.000000 0.000000 0.000000 0.001660 0.001660 0.001660 0.000000
13 0.000000 0.000000 0.000000 0.001660 0.001660 0.001660 0.000000
[root]
12 -37.727859 -52.006012 1502.602539 -82.810059 -21.240545 -98.876442 1503.975586
13 -37.573353 -52.613304 1502.583740 -84.123192 -22.667711 -96.528084 1503.973999
[chest]
12 -84.512650 -34.090519 0.000000 -4.659035 -10.126828 153.873093 91.129311
13 -84.512650 -34.090519 0.000000 -6.181319 -16.615665 158.286621 91.129311
[L_mid_tent01]
12 27.299145 22.179050 -249.918701 2.233684 0.252645 78.878281 252.381683
13 27.299147 22.179047 -249.918701 2.380207 4.686179 79.141663 252.381683
[R_mid_tent01]
12 23.228794 24.509907 226.238495 165.978714 -2.652629 72.985245 228.744751
13 23.228794 24.509907 226.238495 166.077438 -7.593381 74.155144 228.744751
[spine01]
12 -0.361383 -0.195265 0.000000 0.002062 0.001122 32.879829 0.410763
13 -0.361383 -0.195265 0.000000 0.002062 0.001122 32.879829 0.410763
[Bip01_Neck]
12 165.484543 71.581718 0.000119 176.643677 -1.657967 43.431911 180.302734
13 165.484543 71.581718 0.000119 176.643677 -1.657967 43.431911 180.302734
[L_humerus]
12 -13.983130 -135.272980 -120.471481 163.837860 24.823559 -65.903297 181.680161
13 -13.983130 -135.272980 -120.471481 162.769058 21.894840 -66.003830 181.680161
[R_humerus]
12 -13.983309 -135.273102 125.287651 -177.878448 -17.165344 -84.894325 184.909012
13 -13.983309 -135.273102 125.287651 -176.955414 -11.787668 -86.163353 184.909012
[weapon_bone]
12 235.964890 -300.705902 0.000000 0.000000 -89.951546 -128.212341 382.234833
13 235.964890 -300.705902 0.000000 0.000000 -89.951546 -128.212341 382.234833
[Bip01_Head]
12 213.444199 185.715363 11.776938 27.333546 2.973319 -43.895035 283.173645
13 213.444199 185.715363 11.776937 29.273142 2.991709 -43.894138 283.173645
[eye_left_bone]
12 -24.626970 125.451866 -64.772606 0.000000 -90.000000 -99.840431 143.318359
13 -24.626970 125.451866 -64.772606 0.000000 -90.000000 -99.840431 143.318359
[eye_right_bone]
12 -24.626970 125.451866 64.327362 0.000000 -89.965736 80.156380 143.117676
13 -24.626970 125.451866 64.327362 0.000000 -89.965736 80.156380 143.117676
[L_forearm]
12 322.776093 0.000000 -0.000119 0.000396 -0.002314 -109.419975 322.776093
13 322.776093 0.000000 -0.000119 0.000396 -0.002314 -109.419975 322.776093
[L_front_hand]
12 241.149185 -0.042021 -3.300071 -178.667953 -1.835447 -27.422350 241.171753
13 241.149185 -0.042021 -3.300071 -178.667953 -1.835447 -27.422344 241.171753
[L_weapon_bone]
12 156.183838 0.000000 0.000000 0.000014 0.000007 0.000001 156.183838
13 156.183838 0.000000 0.000000 0.000014 0.000007 0.000001 156.183838
[L_front_hand01_01]
12 86.095154 20.947098 -0.655860 -0.274633 -0.532782 65.272827 88.609184
13 86.095154 20.947098 -0.655860 -0.273295 -0.533469 64.985298 88.609184
[L_front_hand02_01]
12 86.935165 -11.437475 24.513514 141.090271 -54.445614 -45.572052 91.046425
13 86.935165 -11.437475 24.513514 140.772385 -54.262844 -45.183468 91.046425
[L_front_hand03_01]
12 86.637497 -14.123976 -20.424902 -141.476303 52.677540 -47.637543 90.126129
13 86.637497 -14.123976 -20.424902 -141.183044 52.494118 -47.265888 90.126129
[L_front_hand01_02]
12 71.020905 -0.000179 0.000030 0.000315 -0.002326 -105.419182 71.020905
13 71.020905 -0.000179 0.000030 0.000315 -0.002326 -105.414528 71.020905
[L_front_hand02_02]
12 71.020927 -0.000119 0.000060 0.000315 -0.002326 -105.419182 71.020927
13 71.020927 -0.000119 0.000060 0.000315 -0.002326 -105.414528 71.020927
[L_front_hand03_02]
12 71.020905 -0.000060 0.000060 0.000315 -0.002326 -105.419182 71.020905
13 71.020905 -0.000060 0.000060 0.000315 -0.002326 -105.414528 71.020905
[R_forearm]
12 322.776428 -0.000060 0.000030 0.202103 0.065158 -108.062805 322.776428
13 322.776428 -0.000060 0.000030 0.202103 0.065158 -108.062820 322.776428
[R_front_hand]
12 238.847015 -0.006795 2.210259 -2.635298 -10.645461 -26.312506 238.857239
13 238.847015 -0.006795 2.210259 -2.635298 -10.645460 -26.312500 238.857239
[R_weapon_bone]
12 155.664093 0.002503 -0.000030 0.003487 0.001180 -90.988930 155.664078
13 155.664093 0.002503 -0.000030 0.003487 0.001180 -90.988930 155.664078
[R_front_hand01_01]
12 87.624611 14.231146 22.918642 -140.500641 -54.097107 44.955364 91.683487
13 87.624611 14.231146 22.918642 -139.406311 -53.422413 43.599293 91.683487
[R_front_hand02_01]
12 89.356956 14.367283 -19.491137 141.255966 52.517570 47.591045 92.579636
13 89.356956 14.367283 -19.491137 140.210251 51.852013 46.267590 92.579636
[R_front_hand03_01]
12 87.286232 -22.307278 -0.143439 0.080269 -0.445286 -64.968231 90.091743
13 87.286232 -22.307278 -0.143439 0.071981 -0.448622 -63.915920 90.091743
[R_front_hand01_02]
12 71.020905 0.000060 0.000119 0.002323 -0.000334 106.381714 71.020905
13 71.020905 0.000060 0.000119 0.002323 -0.000334 106.381706 71.020905
[R_front_hand02_02]
12 71.020844 -0.000030 -0.000119 0.002323 -0.000334 106.381714 71.020836
13 71.020844 -0.000030 -0.000119 0.002323 -0.000334 106.381706 71.020836
[R_front_hand03_02]
12 71.020905 0.000000 0.000030 0.002323 -0.000334 106.381714 71.020905
13 71.020905 0.000000 0.000030 0.002323 -0.000334 106.381706 71.020905
[null_rope01_connect]
12 328.732483 0.000000 -0.000238 -46.906212 -78.713272 79.724274 328.732483
13 328.732483 0.000000 -0.000238 -72.170448 -80.720978 105.788414 328.732483
[Rope1_Seg01]
12 -0.000031 0.000024 0.000097 -60.855888 47.224041 -77.720055 0.000104
13 -0.000031 0.000023 0.000092 -48.288517 42.242519 -69.353683 0.000099
[Rope1_Seg02]
12 139.999863 -0.000179 0.000000 -0.601771 2.847793 -2.576205 139.999863
13 139.999863 -0.000179 0.000000 0.731610 1.393754 -2.625972 139.999863
[Rope1_Seg03]
12 139.999924 0.000060 -0.000060 -1.304569 4.612970 -4.145418 139.999924
13 139.999924 0.000060 -0.000060 1.132511 2.042992 -3.748220 139.999924
[Rope1_Seg04]
12 139.999924 -0.000060 -0.000119 -4.220233 8.108760 -7.054031 139.999924
13 139.999924 -0.000060 -0.000119 0.871271 6.567415 -8.551548 139.999924
[Rope1_Seg05]
12 139.999832 0.000119 -0.000060 1.873487 -5.410784 4.534470 139.999832
13 139.999832 0.000119 -0.000060 8.239791 -6.050070 -0.558656 139.999832
[Rope1_Seg06]
12 139.999954 0.000119 -0.000060 0.687050 -2.823532 2.508043 139.999954
13 139.999954 0.000119 -0.000060 2.181918 -4.744391 2.832562 139.999954
[Rope1_Seg07]
12 139.999985 0.000060 0.000000 0.209432 -1.098222 1.028417 139.999985
13 139.999985 0.000060 0.000000 1.081501 -1.650877 0.579650 139.999985
[Rope1_Seg09]
12 121.602913 0.000119 -0.000089 -89.793175 -1.359789 0.847147 121.602913
13 121.602913 0.000119 -0.000089 -89.793175 -1.359789 0.847147 121.602913
[L_mid_hand01]
12 103.859421 1.038730 8.195221 111.216125 -46.770248 -16.325296 104.187431
13 103.859421 1.038730 8.195221 112.987701 -50.601227 -18.681456 104.187431
[L_mid_hand02]
12 105.572853 -4.139662 -10.864139 -150.384232 34.904903 -44.592545 106.211075
13 105.572853 -4.139662 -10.864139 -153.018723 36.866009 -49.082401 106.211075
[L_mid_hand03]
12 104.641464 17.579376 -3.913581 -12.781254 13.855400 50.452682 106.179977
13 104.641464 17.579376 -3.913581 -11.755013 14.733717 54.618225 106.179977
[null_rope02_connect]
12 328.732849 0.000179 -0.000119 -89.222588 83.677429 51.312397 328.732849
13 328.732849 0.000179 -0.000119 -101.870186 78.455597 37.755177 328.732849
[Rope2_Seg01]
12 -0.000008 0.000105 0.000000 138.952194 47.546749 -85.259300 0.000105
13 -0.000015 0.000104 0.000000 141.634048 51.693962 -86.128586 0.000105
[Rope2_Seg02]
12 139.999741 -0.000060 -0.000119 -2.841505 -6.543806 6.331488 139.999756
13 139.999741 -0.000060 -0.000119 -4.575512 -4.961450 8.346719 139.999756
[Rope2_Seg03]
12 140.000107 0.000030 0.000000 -1.957488 -8.058708 6.514733 140.000107
13 140.000107 0.000030 0.000000 -3.509108 -7.204245 9.304909 140.000107
[Rope2_Seg04]
12 139.999802 0.000000 -0.000060 -0.696785 -16.502611 6.673050 139.999802
13 139.999802 0.000000 -0.000060 -2.470642 -16.233828 11.419377 139.999802
[Rope2_Seg05]
12 139.999985 -0.000060 0.000119 -0.716001 1.640858 4.850123 139.999985
13 139.999985 -0.000060 0.000119 -0.443598 3.973099 5.154467 139.999985
[Rope2_Seg06]
12 139.999893 -0.000030 -0.000119 -3.850248 23.884930 4.611066 139.999893
13 139.999893 -0.000030 -0.000119 -4.005839 26.878292 0.341556 139.999893
[Rope2_Seg07]
12 139.999893 0.000060 -0.000060 -7.097651 15.732248 4.824733 139.999893
13 139.999893 0.000060 -0.000060 -6.441211 15.384403 2.180133 139.999893
[Rope2_Seg09]
12 121.338966 0.000089 -0.000060 33.793236 -1.359788 -0.847141 121.338966
13 121.338966 0.000089 -0.000060 33.793236 -1.359788 -0.847141 121.338966
[R_mid_hand01]
12 104.680779 11.144459 -10.335981 -36.922554 32.243565 38.107742 105.778534
13 104.680779 11.144459 -10.335981 -37.204079 31.906813 37.576260 105.778534
[R_mid_hand02]
12 104.070427 2.443552 8.231699 70.193451 -42.958271 14.324638 104.424065
13 104.070427 2.443552 8.231699 70.367462 -42.427391 14.067809 104.424065
[R_mid_hand03]
12 106.028137 -11.221827 -5.996406 -170.013962 12.325404 -47.779564 106.788818
13 106.028137 -11.221827 -5.996406 -169.893616 12.226661 -47.211018 106.788818
[spine02]
12 129.756927 0.001550 0.000119 0.360061 -4.044797 -12.915058 129.756927
13 129.756927 0.001550 0.000119 0.360061 -4.044797 -12.915058 129.756927
[spine03]
12 78.614082 0.081538 -4.898996 1.896495 3.831288 16.473045 78.766624
13 78.614082 0.081543 -4.898995 1.896495 3.831288 16.473045 78.766624
[pelvis]
12 169.435242 0.051022 0.000000 -0.060465 -0.180225 14.087930 169.435257
13 169.435242 0.051022 0.000000 -0.060465 -0.180225 14.087931 169.435257
[null_rope03_connect]
12 -1.257226 -2.466202 137.391083 -38.227173 -80.022621 99.532921 137.418976
13 -1.257226 -2.466202 137.391083 -32.436474 -82.234085 94.935944 137.418976
[null_rope04_connect]
12 -1.259640 -2.480268 -137.844437 -38.227173 -80.022621 99.532921 137.872513
13 -1.259640 -2.480268 -137.844437 -32.436474 -82.234085 94.935944 137.872513
[Rope3_Seg01]
12 0.000010 0.000024 -0.000097 -143.454102 38.242851 -93.802948 0.000100
13 0.000010 0.000023 -0.000092 -136.338715 33.597282 -83.720268 0.000095
[Rope3_Seg02]
12 139.999924 -0.000119 0.000060 -0.933159 -1.726219 1.633248 139.999924
13 139.999924 -0.000119 0.000060 -1.089100 0.707632 8.014006 139.999924
[Rope3_Seg03]
12 139.999924 -0.000119 0.000119 -1.450753 -2.546318 2.344451 139.999924
13 139.999924 -0.000119 0.000119 -1.966445 0.651956 8.962688 139.999924
[Rope3_Seg04]
12 139.999924 0.000119 0.000000 -4.913196 -4.047348 10.104347 139.999924
13 139.999924 0.000119 0.000000 -6.145033 1.756709 17.080582 139.999924
[Rope3_Seg05]
12 139.999924 -0.000238 0.000060 0.324096 -7.660056 -9.697239 139.999924
13 139.999924 -0.000238 0.000060 -2.723631 -0.848627 3.792296 139.999924
[Rope3_Seg06]
12 139.999893 -0.000119 -0.000060 2.443753 -5.754228 -25.347200 139.999893
13 139.999893 -0.000119 -0.000060 7.193637 -1.766877 -20.013630 139.999893
[Rope3_Seg07]
12 139.999771 0.000060 -0.000119 0.147636 -4.511612 -12.755675 139.999771
13 139.999771 0.000060 -0.000119 3.936204 -4.642329 -22.446503 139.999771
[Rope3_Seg08]
12 139.999985 -0.000060 0.000000 -0.021163 -1.856031 -5.312264 139.999985
13 139.999985 -0.000060 0.000000 0.915370 -3.360036 -11.777412 139.999985
[Rope3_Seg09]
12 90.185997 -0.000179 -0.000060 89.793228 -1.359877 -0.847183 90.185997
13 90.185997 -0.000179 -0.000060 89.793228 -1.359877 -0.847183 90.185997
[R_rear_hand01]
12 103.366196 -6.073594 -10.757982 -164.755127 19.627697 -40.352161 104.101845
13 103.366196 -6.073594 -10.757982 -165.129318 19.906286 -41.459824 104.101845
[R_rear_hand02]
12 100.509819 12.039542 -7.992327 -30.792652 24.782448 38.141541 101.543350
13 100.509819 12.039542 -7.992327 -30.361929 25.330688 39.162518 101.543350
[R_rear_hand03]
12 101.539970 5.215704 5.435467 82.448349 -41.048256 8.840378 101.819031
13 101.539970 5.215704 5.435467 82.326164 -42.112484 9.027008 101.819031
[Rope4_Seg01]
12 0.000005 0.000048 -0.000181 44.327702 42.757401 -115.671974 0.000187
13 0.000004 0.000046 -0.000183 36.243008 36.698608 -128.426453 0.000189
[Rope4_Seg02]
12 139.999985 0.000060 0.000119 -0.475738 2.536630 10.950468 139.999985
13 139.999985 0.000060 0.000119 1.887070 12.505919 15.329441 139.999985
[Rope4_Seg03]
12 139.999924 0.000000 -0.000238 -2.070334 2.871425 13.474474 139.999924
13 139.999924 0.000000 -0.000238 -0.922533 11.871449 14.755403 139.999924
[Rope4_Seg04]
12 139.999985 0.000000 0.000119 -3.362535 1.992672 11.860995 139.999985
13 139.999985 0.000000 0.000119 -4.269224 9.596819 13.498647 139.999985
[Rope4_Seg05]
12 139.999802 -0.000060 -0.000119 2.978212 -0.655004 -8.696524 139.999802
13 139.999802 -0.000060 -0.000119 0.151667 0.748136 0.249943 139.999802
[Rope4_Seg06]
12 139.999924 0.000000 0.000060 5.407171 -3.686515 -28.401203 139.999924
13 139.999924 0.000000 0.000060 6.513152 -5.677650 -12.565759 139.999924
[Rope4_Seg07]
12 139.999802 0.000000 0.000000 -0.438517 -4.531830 -21.857155 139.999802
13 139.999802 0.000000 0.000000 5.558318 -9.617462 -16.784784 139.999802
[Rope4_Seg08]
12 139.999924 0.000000 0.000119 -3.815892 -2.226201 -11.873767 139.999924
13 139.999924 0.000000 0.000119 -0.035732 -6.683423 -10.150595 139.999924
[Rope4_Seg09]
12 90.185791 0.000060 0.000060 -135.617828 2.228885 0.850567 90.185791
13 90.185791 0.000060 0.000060 -135.617828 2.228885 0.850567 90.185791
[L_rear_hand01]
12 101.696655 -8.392275 -7.654577 -26.077681 -29.734324 131.595932 102.329041
13 101.696655 -8.392275 -7.654577 -23.837065 -31.497852 127.196877 102.329041
[L_rear_hand02]
12 102.726799 -1.568258 5.773216 80.880577 51.310966 168.995010 102.900848
13 102.726799 -1.568258 5.773216 79.940979 55.428272 167.825531 102.900848
[L_rear_hand03]
12 104.552910 9.721220 -10.420293 -168.606277 -22.023735 -128.845840 105.519653
13 104.552910 9.721220 -10.420293 -170.300186 -22.788525 -124.407036 105.519653
